<?xml version="1.0" encoding="UTF-8" standalone="no"?>
<!DOCTYPE svg PUBLIC "-//W3C//DTD SVG 1.1//EN" "http://www.w3.org/Graphics/SVG/1.1/DTD/svg11.dtd">
<svg width="100%" height="100%" viewBox="0 0 512 512" version="1.1" xmlns="http://www.w3.org/2000/svg" xmlns:xlink="http://www.w3.org/1999/xlink" xml:space="preserve" xmlns:serif="http://www.serif.com/" style="fill-rule:evenodd;clip-rule:evenodd;stroke-linejoin:round;stroke-miterlimit:2;">
    <g transform="matrix(1,0,0,1,0,11)">
        <path d="M511.999,256.5L511.999,257.5C511.849,257.935 511.138,258.006 510.988,258.442C510.964,258.511 510.986,268.355 510.998,268.435C511.068,268.917 511.929,269.018 511.999,269.5L511.999,280.5C511.929,280.982 511.066,281.08 510.996,281.562C510.983,281.647 510.965,291.485 510.992,291.563C511.142,291.997 511.849,292.067 511.999,292.5L511.999,293.5C511.884,293.983 511.062,294.071 510.947,294.554C510.73,295.461 508.964,309.269 508.8,310.549C508.612,312.023 502.928,334.782 496.218,348.358C479.156,382.875 469.33,390.03 420.68,438.68C417.152,442.207 417.21,442.151 413.672,445.675C380.027,479.187 343.495,484.091 338.526,485.576C328.967,488.431 310.441,487.938 231.5,487.938C164.543,487.938 162.6,489.097 137.473,480.567C120.898,474.939 94.992,456.388 89.079,446.764C86.5,442.566 71.535,429.273 63.755,398.406C58.739,378.503 60.243,378.287 60.044,323.503C60.032,320.377 57.576,318.993 39.792,301.208C11.188,272.601 11.3,272.386 4.785,260.359C4.408,259.662 1.293,250.326 1.197,249.55C0.966,247.69 1.122,247.71 1.063,247.562C0.754,246.772 0.291,247.242 -0,246.5L0,223.5C2.676,218.884 1.947,218.632 3.752,213.603C4.322,212.014 7.878,202.108 14.354,195.362C30.887,178.136 46.417,176.73 48.284,176.041C50.963,175.053 45.519,173.192 41.757,158.406C38.752,146.592 40.022,146.435 39.758,145.418C38.825,141.819 39.808,141.888 40.022,138.463C41.232,119.134 44.782,117.427 52.083,105.255C58.282,94.922 77.975,84.495 86.449,83.199C106.564,80.126 111.088,82.983 116.562,84.085C124.862,85.755 126.567,88.882 127.07,85.443C127.384,83.297 129.305,70.157 137.3,60.341C138.158,59.288 145.934,49.741 148.788,47.837C172.418,32.072 185.666,34.643 198.544,36.213C205.946,37.116 221.168,44.801 224.61,48.374C229.114,53.051 226.061,39.892 238.298,25.332C244.853,17.534 244.61,17.29 246.786,15.833C264.427,4.027 275.266,-0.488 299.549,3.207C306.012,4.191 321.283,11.946 325.21,15.795C384.859,74.268 453.171,143.587 464.209,154.788C494.794,185.825 506.255,226.525 507.809,235.447C511.011,253.83 510.572,253.871 510.948,255.446C511.063,255.929 511.884,256.017 511.999,256.5Z" style="fill-opacity:1;"/>
        <path d="M484.958,265.48C488.006,341.256 450.278,371.198 409.738,411.738C378.457,443.018 359.424,461.147 302.5,461.147C166.514,461.149 166.204,461.743 152.602,457.148C139.552,452.74 100.184,438.132 88.529,386.494C87.877,383.604 86.702,378.398 86.586,349.515C86.572,346.101 89.914,350.361 108.768,369.232C110.191,370.656 123.021,387.644 134.457,378.445C140.994,373.187 141.081,363.886 135.105,357.883C32.937,255.259 30.099,256.18 27.228,241.549C21.129,210.464 60.592,188.103 85.259,212.744C119.693,247.143 120.526,250.382 130.522,247.58C133.598,246.718 147.665,237.598 133.544,223.456C72.189,162.013 72.033,161.926 69.431,155.529C55.779,121.96 98.573,93.774 124.216,118.812C185.666,178.814 184.678,183.602 194.525,181.632C207.567,179.021 208.97,166.339 201.486,158.514C167.678,123.167 146.685,113.101 155.184,85.404C160.996,66.461 189.758,51.522 212.185,73.816C252.267,113.661 252.901,117.583 263.536,114.627C269.956,112.843 277.854,102.148 267.457,91.543C265.06,89.098 249.785,77.423 253.236,56.448C256.999,33.58 288.661,17.414 312.146,40.855C442.575,171.038 443.322,170.356 452.994,183.122C463.379,196.829 474.301,212.421 481.177,240.58C481.736,242.871 484.33,252.462 484.958,265.48Z" style="fill:rgb(254,203,127);"/>
        <path d="M511.999,280.5L511.999,292.5C511.849,292.067 511.142,291.997 510.992,291.563C510.965,291.485 510.983,281.647 510.996,281.562C511.066,281.08 511.929,280.982 511.999,280.5Z" style="fill-opacity:0.58;"/>
        <path d="M511.999,257.5L511.999,269.5C511.929,269.018 511.068,268.917 510.998,268.435C510.986,268.355 510.964,258.511 510.988,258.442C511.138,258.006 511.849,257.935 511.999,257.5Z" style="fill-opacity:0.57;"/>
    </g>
</svg>
